External Loads File
version=1
nRows=93
nColumns=13
Range=5.000000e-03-10 seconds
endheader
time 	forceRightX 	forceRightY 	forceRightZ 	pointRightX 	pointRightY 	pointRightZ 	forceLeftX 	forceLeftY 	forceLeftZ 	pointLeftX 	pointLeftY 	pointLeftZ 		
7.505000 76.471997 62.186718 -0.000000 0.137812 0.265821 -0.144458 -182.907395 456.747226 -0.000000 0.399559 0.382379 -0.382406
7.510000 74.597212 62.316198 -0.000000 0.135443 0.275860 -0.144400 -185.110756 456.563304 -0.000000 0.402463 0.371543 -0.382282
7.515000 72.026175 62.588813 -0.000000 0.133667 0.286218 -0.144379 -185.694855 455.043823 -0.000000 0.404791 0.360524 -0.382254
7.520000 68.523709 63.021089 -0.000000 0.132484 0.296642 -0.144430 -186.066714 452.575959 -0.000000 0.406555 0.349443 -0.382207
7.525000 64.129050 63.307575 -0.000000 0.131839 0.307200 -0.144561 -185.983733 449.937485 -0.000000 0.407646 0.338329 -0.382097
7.530000 58.947673 63.136403 -0.000000 0.131803 0.317941 -0.144651 -185.298468 447.629635 -0.000000 0.407939 0.327245 -0.382255
7.535000 53.074569 62.303738 -0.000000 0.132324 0.328601 -0.144875 -184.636781 445.643610 -0.000000 0.407803 0.316222 -0.382063
7.540000 46.854993 60.501537 -0.000000 0.133428 0.339446 -0.145050 -183.560576 444.266748 -0.000000 0.407187 0.305207 -0.382323
7.545000 40.526941 57.622500 -0.000000 0.134642 0.350291 -0.145630 -182.971861 443.141245 -0.000000 0.405546 0.294273 -0.381909
7.550000 34.616143 53.431100 -0.000000 0.136872 0.361168 -0.145866 -181.846557 442.660852 -0.000000 0.403559 0.283450 -0.381726
7.555000 29.363413 47.993968 -0.000000 0.139689 0.371879 -0.146125 -181.185644 442.357690 -0.000000 0.400965 0.272795 -0.381658
7.560000 25.132067 41.395615 -0.000000 0.143072 0.382578 -0.146344 -180.481569 442.374699 -0.000000 0.397721 0.262412 -0.381625
7.565000 22.146773 33.875413 -0.000000 0.146870 0.393074 -0.146585 -179.403001 442.795993 -0.000000 0.393927 0.252255 -0.381515
7.570000 20.440694 25.799304 -0.000000 0.151717 0.403330 -0.146449 -178.659859 443.308041 -0.000000 0.389619 0.242409 -0.381508
7.575000 20.022115 17.506924 -0.000000 0.156521 0.413528 -0.146799 -177.981884 444.020640 -0.000000 0.384728 0.232845 -0.381465
7.580000 20.750751 9.323251 -0.000000 0.161878 0.423432 -0.147085 -176.910722 445.151779 -0.000000 0.379349 0.223762 -0.381339
7.585000 22.298699 1.610432 -0.000000 0.167622 0.432967 -0.147487 -176.478686 446.363419 -0.000000 0.373491 0.215090 -0.381225
7.590000 24.229484 -5.420647 -0.000000 0.173709 0.442225 -0.147824 -175.830414 448.086009 -0.000000 0.367165 0.206950 -0.381047
7.595000 25.960420 -11.628265 -0.000000 0.180270 0.450954 -0.148231 -175.299459 450.272620 -0.000000 0.360466 0.199214 -0.380919
7.600000 26.868022 -17.046752 -0.000000 0.186621 0.459125 -0.149124 -175.213118 452.844602 -0.000000 0.353335 0.191964 -0.380887
7.605000 26.308239 -21.960392 -0.000000 0.194361 0.466891 -0.149281 -175.069864 455.944524 -0.000000 0.345827 0.185288 -0.380779
7.610000 23.740383 -26.774973 -0.000000 0.202117 0.473930 -0.150031 -175.301708 459.191039 -0.000000 0.338028 0.179209 -0.380647
7.615000 18.755114 -32.020293 -0.000000 0.210011 0.480456 -0.150472 -175.874282 462.169029 -0.000000 0.329906 0.173698 -0.380548
7.620000 11.119087 -38.234635 -0.000000 0.218208 0.486365 -0.150896 -176.299200 464.351289 -0.000000 0.321458 0.168801 -0.380435
7.625000 1.042183 -45.817013 -0.000000 0.226769 0.491677 -0.151304 -178.334334 464.008285 -0.000000 0.312805 0.164524 -0.380307
7.630000 -11.185684 -55.073873 -0.000000 0.235486 0.496403 -0.151654 -181.132550 460.030314 -0.000000 0.303904 0.160865 -0.380232
7.635000 -24.756090 -66.073191 -0.000000 0.244274 0.500354 -0.152122 -186.157489 450.052460 -0.000000 0.294902 0.157708 -0.380127
7.640000 -38.854956 -78.619542 -0.000000 0.253319 0.503620 -0.152556 -192.915934 432.184783 -0.000000 0.285728 0.155346 -0.380016
7.645000 -52.413132 -92.393441 -0.000000 0.262102 0.506110 -0.152717 -202.035641 403.976190 -0.000000 0.276432 0.153807 -0.379853
7.650000 -64.409088 -107.002621 -0.000000 0.271005 0.507766 -0.152809 -213.680580 363.345023 -0.000000 0.267092 0.152981 -0.379686
7.655000 -73.911557 -122.097045 -0.000000 0.279819 0.508657 -0.152853 -227.664222 308.991758 -0.000000 0.257747 0.152881 -0.379549
7.660000 -80.700817 -137.131016 -0.000000 0.288456 0.508643 -0.152816 -242.015352 242.260104 -0.000000 0.248461 0.153485 -0.379341
7.665000 -84.250653 -152.087491 -0.000000 0.296880 0.507969 -0.152593 -255.511314 166.330686 -0.000000 0.239280 0.154740 -0.379069
7.670000 -54.791051 178.974761 -0.000000 0.305324 0.506483 -0.152584 252.428525 120.172655 -0.000000 0.230197 0.156684 -0.378851
7.675000 -67.446111 187.794494 -0.000000 0.313515 0.504251 -0.152333 204.979808 174.178427 -0.000000 0.221380 0.159366 -0.378480
7.680000 -53.980995 204.614177 -0.000000 0.321490 0.501078 -0.152053 189.388192 188.325615 -0.000000 0.212669 0.162721 -0.378110
7.685000 -70.418360 212.761391 -0.000000 0.329280 0.497233 -0.151747 154.301521 216.392277 -0.000000 0.204093 0.166673 -0.377876
7.690000 -61.015790 229.756991 -0.000000 0.336789 0.492725 -0.151447 151.585390 211.794624 -0.000000 0.195708 0.171179 -0.377900
7.695000 -81.892974 239.436835 -0.000000 0.344020 0.487624 -0.151238 126.380652 216.111578 -0.000000 0.187810 0.176220 -0.377566
7.700000 -73.071095 260.558480 -0.000000 0.350802 0.481796 -0.151084 131.768007 196.849287 -0.000000 0.180114 0.181809 -0.377087
7.705000 -98.251800 273.657118 -0.000000 0.357499 0.475222 -0.150735 114.896039 190.089948 -0.000000 0.172565 0.187885 -0.376895
7.710000 -126.481084 287.092746 -0.000000 0.363866 0.468077 -0.150469 102.341832 180.903648 -0.000000 0.165239 0.194406 -0.376820
7.715000 -158.062560 300.475507 -0.000000 0.369883 0.460198 -0.150243 93.507592 171.267806 -0.000000 0.158178 0.201387 -0.377048
7.720000 -192.989177 313.306613 -0.000000 0.375780 0.451873 -0.149763 87.530203 162.203615 -0.000000 0.151499 0.208707 -0.377031
7.725000 -231.093453 324.996727 -0.000000 0.381058 0.443069 -0.149684 83.369040 154.124106 -0.000000 0.145194 0.216616 -0.377048
7.730000 -272.946465 334.251060 -0.000000 0.385882 0.433909 -0.149733 79.554890 147.242903 -0.000000 0.139485 0.224887 -0.377011
7.735000 -317.247789 341.138044 -0.000000 0.390400 0.424242 -0.149651 75.492321 141.055643 -0.000000 0.133914 0.233536 -0.377210
7.740000 -364.244835 344.562467 -0.000000 0.394473 0.414305 -0.149445 70.004972 135.359245 -0.000000 0.129217 0.242578 -0.377199
7.745000 -413.013269 344.438871 -0.000000 0.398183 0.403760 -0.149205 62.644311 129.757176 -0.000000 0.124977 0.252055 -0.377202
7.750000 -463.722292 339.226039 -0.000000 0.401427 0.392992 -0.149075 52.836739 124.208302 -0.000000 0.121271 0.261777 -0.377200
7.755000 -514.825356 329.121116 -0.000000 0.404268 0.382237 -0.148960 41.094195 118.592843 -0.000000 0.118107 0.271685 -0.377183
7.760000 -194.945710 616.364993 -0.000000 0.406626 0.371254 -0.148792 98.353360 62.772647 -0.000000 0.115603 0.281953 -0.377222
7.765000 -153.979343 662.369748 -0.000000 0.408444 0.359970 -0.148571 94.529016 55.380749 -0.000000 0.113879 0.292354 -0.377225
7.770000 -200.842212 682.094678 -0.000000 0.409731 0.348918 -0.148191 84.632371 61.619875 -0.000000 0.112801 0.302937 -0.377257
7.775000 -160.951719 721.164381 -0.000000 0.410625 0.337658 -0.147940 84.470826 57.075982 -0.000000 0.112393 0.313550 -0.377284
7.780000 -205.205298 734.962046 -0.000000 0.411005 0.326453 -0.147617 79.536663 61.941766 -0.000000 0.112640 0.324201 -0.377376
7.785000 -249.017841 742.419002 -0.000000 0.410875 0.315283 -0.147482 76.386054 65.550337 -0.000000 0.113265 0.334925 -0.377267
7.790000 -291.291333 743.500067 -0.000000 0.410363 0.304308 -0.147304 74.601920 67.981052 -0.000000 0.114791 0.345643 -0.377257
7.795000 -330.823873 738.543368 -0.000000 0.409037 0.293406 -0.147506 73.722249 69.339776 -0.000000 0.116079 0.356586 -0.376482
7.800000 -366.374385 728.316685 -0.000000 0.407291 0.282721 -0.147344 73.270911 69.706090 -0.000000 0.118647 0.366962 -0.376536
7.805000 -400.823972 711.694353 -0.000000 0.404869 0.272466 -0.146463 72.396310 69.523593 -0.000000 0.121786 0.377298 -0.376577
7.810000 -431.334091 690.544810 -0.000000 0.401982 0.261924 -0.146217 70.892369 68.605433 -0.000000 0.125478 0.387591 -0.376642
7.815000 -458.203789 665.382243 -0.000000 0.398726 0.252080 -0.145993 68.356804 67.034487 -0.000000 0.129775 0.397698 -0.376674
7.820000 -481.401998 636.990477 -0.000000 0.394983 0.242492 -0.145785 64.517003 64.839240 -0.000000 0.134342 0.407632 -0.376689
7.825000 -502.776932 604.666234 -0.000000 0.390797 0.233292 -0.145849 59.115351 62.242571 -0.000000 0.139609 0.417375 -0.376740
7.830000 -519.920754 571.011022 -0.000000 0.386263 0.224482 -0.146020 52.654715 59.095880 -0.000000 0.145165 0.426666 -0.376765
7.835000 -41.190080 755.353504 -0.000000 0.381172 0.216050 -0.145865 71.121841 11.169774 -0.000000 0.151357 0.435909 -0.377328
7.840000 -74.150558 735.728829 -0.000000 0.375667 0.208007 -0.145789 63.733284 13.371691 -0.000000 0.157786 0.444675 -0.376623
7.845000 -104.286273 713.950499 -0.000000 0.369777 0.200389 -0.145686 57.160986 15.258088 -0.000000 0.164174 0.452919 -0.376479
7.850000 -132.759619 690.269587 -0.000000 0.363479 0.193378 -0.145659 51.756380 16.866465 -0.000000 0.170929 0.460719 -0.376515
7.855000 -158.292900 665.159940 -0.000000 0.356788 0.186796 -0.145647 47.646019 18.093816 -0.000000 0.179157 0.468646 -0.377510
7.860000 -181.513998 638.648674 -0.000000 0.349775 0.180719 -0.145594 44.748853 18.991902 -0.000000 0.185985 0.475271 -0.377056
7.865000 -202.253180 610.796086 -0.000000 0.342468 0.175199 -0.145564 42.905598 19.569956 -0.000000 0.193675 0.481397 -0.377140
7.870000 -219.895246 581.786880 -0.000000 0.334835 0.170199 -0.145432 41.917589 19.841267 -0.000000 0.201906 0.487077 -0.377406
7.875000 -234.340999 551.669431 -0.000000 0.326917 0.165807 -0.145278 41.582854 19.850992 -0.000000 0.210085 0.492114 -0.377370
7.880000 -245.935947 520.314045 -0.000000 0.318726 0.162101 -0.145126 41.723170 19.658029 -0.000000 0.218457 0.496599 -0.377388
7.885000 -254.430079 487.898036 -0.000000 0.310399 0.158995 -0.145029 42.196716 19.286994 -0.000000 0.226881 0.500551 -0.377487
7.890000 -259.667147 454.686854 -0.000000 0.301867 0.156459 -0.144975 42.876997 18.773255 -0.000000 0.235516 0.503738 -0.377611
7.895000 -262.225705 420.619135 -0.000000 0.293173 0.154478 -0.144945 43.642783 18.210828 -0.000000 0.244496 0.506030 -0.377723
7.900000 -261.988794 386.097927 -0.000000 0.284332 0.153224 -0.144913 44.420952 17.637060 -0.000000 0.252985 0.507737 -0.377899
7.905000 -258.025832 352.303313 -0.000000 0.275424 0.152630 -0.144890 45.200376 16.968637 -0.000000 0.261866 0.508708 -0.378116
7.910000 -252.965174 318.005272 -0.000000 0.266463 0.152661 -0.144863 45.837686 16.528029 -0.000000 0.270658 0.509107 -0.378513
7.915000 -244.926298 285.385805 -0.000000 0.257394 0.153347 -0.144864 46.417397 16.042486 -0.000000 0.279508 0.509029 -0.378508
7.920000 -235.478503 254.062640 -0.000000 0.248415 0.154793 -0.144937 46.845328 15.704249 -0.000000 0.288389 0.508126 -0.378696
7.925000 -224.784904 224.748917 -0.000000 0.239372 0.156790 -0.144922 47.123327 15.479214 -0.000000 0.297125 0.505819 -0.378912
7.930000 -213.653731 197.533725 -0.000000 0.230371 0.159390 -0.144955 47.236117 15.422051 -0.000000 0.305915 0.503103 -0.379062
7.935000 -202.293149 173.083204 -0.000000 0.221549 0.162697 -0.144968 47.211914 15.442316 -0.000000 0.314266 0.499580 -0.379216
7.940000 -191.522855 151.378601 -0.000000 0.212935 0.166475 -0.144983 47.050906 15.559685 -0.000000 0.322445 0.495888 -0.379435
7.945000 -182.113860 132.300773 -0.000000 0.204533 0.170774 -0.144983 46.760368 15.798441 -0.000000 0.330433 0.491596 -0.379625
7.950000 -174.627170 115.773253 -0.000000 0.196247 0.175615 -0.144954 46.337245 16.182354 -0.000000 0.338241 0.486707 -0.379819
7.955000 -169.103096 102.225431 -0.000000 0.188304 0.180967 -0.144952 45.835413 16.583569 -0.000000 0.345602 0.481653 -0.379940
7.960000 -165.835714 91.399763 -0.000000 0.180682 0.186656 -0.144975 45.275088 17.015430 -0.000000 0.352696 0.475769 -0.380039
7.965000 -165.038767 82.661518 -0.000000 0.173416 0.192824 -0.144945 44.634707 17.575348 -0.000000 0.359547 0.469474 -0.380102
